<svg xmlns="http://www.w3.org/2000/svg" viewBox="0 0 48 48" fill="currentColor">
  <!-- Driver Silhouette - Professional head & shoulders bust -->
  <!-- Head shape -->
  <path d="M24 8c-3.3 0-6 2.7-6 6v2c0 1.1.3 2.1.8 3-2.3.8-4.3 2.5-5.2 4.8-.3.9-.6 1.9-.6 2.9v2c0 1.1.9 2 2 2h18c1.1 0 2-.9 2-2v-2c0-1-.3-2-.6-2.9-.9-2.3-2.9-4-5.2-4.8.5-.9.8-1.9.8-3v-2c0-3.3-2.7-6-6-6z"/>
  
  <!-- Shoulders/Upper body with collar indication -->
  <path d="M12 38v2c0 1.1.9 2 2 2h20c1.1 0 2-.9 2-2v-2c0-3.3-2.2-6.1-5.2-7-1.8 1.5-4.1 2.5-6.8 2.5s-5-1-6.8-2.5c-3 1-5.2 3.7-5.2 7z"/>
  
  <!-- Driver collar/badge detail -->
  <path d="M18 31c1.5 1.2 3.4 2 5.5 2s4-.8 5.5-2c-.5-.4-1-.8-1.6-1.1-.6 1.5-2.2 2.6-3.9 2.6s-3.3-1.1-3.9-2.6c-.6.3-1.1.7-1.6 1.1z"/>
  
  <!-- Steering wheel outline (subtle arc) -->
  <path d="M8 36c0-4.4 3.6-8 8-8h16c4.4 0 8 3.6 8 8" fill="none" stroke="currentColor" stroke-width="2" stroke-linecap="round" opacity="0.4"/>
  
  <!-- Small driver badge on chest -->
  <circle cx="30" cy="34" r="2" opacity="0.6"/>
</svg>
